# xmcd
#
# Track frame offsets: 
#        150
#        23586
#        36800
#        50670
#        65448
#        76968
#        88008
#        100618
#        112887
#        127116
#        142325
#        156294
#        172442
#        184334
#        202461
#        219632
#        232541
#        246817
#        259041
#        269405
#        280819
#        294449
#
# Disc length: 4123 seconds
#
# Revision: 1
# Processed by: cddbd v1.5.2PL0 Copyright (c) Steve Scherf et al.
# Submitted via: ExactAudioCopy v1.2
#
DISCID=4e101916
DTITLE=Ella Fitzgerald - 2006 Une anthologie 1948 , 1955 - CD2
DYEAR=2006
DGENRE=Jazz
TTITLE0=You'll Have To Swing It (Mr. Paganini)
TTITLE1=Angel Eyes
TTITLE2=Preview
TTITLE3=Early Autumn
TTITLE4=Ella's Contribution To The Blues
TTITLE5=Walking By The River
TTITLE6=Blue Lou
TTITLE7=Moanin' Low
TTITLE8=Takin' A Chance On Love
TTITLE9=What Is There To Say ?
TTITLE10=Makin' Whoopee
TTITLE11=Please Be Kind
TTITLE12=Nice Work If You Can Get It
TTITLE13=Stardust
TTITLE14=Baby, What Else Can I Do ?
TTITLE15=Lullaby Of Birdland
TTITLE16=You'll Never Know
TTITLE17=It Might As Well Be Spring
TTITLE18=Between The Devil And The Deep Blue Sea
TTITLE19=That Old Black Magic
TTITLE20=Hard Hearted Hannah
TTITLE21=My One And Only Love
EXTD=
EXTT0=
EXTT1=
EXTT2=
EXTT3=
EXTT4=
EXTT5=
EXTT6=
EXTT7=
EXTT8=
EXTT9=
EXTT10=
EXTT11=
EXTT12=
EXTT13=
EXTT14=
EXTT15=
EXTT16=
EXTT17=
EXTT18=
EXTT19=
EXTT20=
EXTT21=
PLAYORDER=
